# xmcd
#
# Track frame offsets: 
#        150
#        20239
#        40748
#        61271
#        79603
#        101235
#        120315
#        142633
#        159941
#        183492
#        206744
#
# Disc length: 3085 seconds
#
# Revision: 2
# Processed by: cddbd v1.5.2PL0 Copyright (c) Steve Scherf et al.
# Submitted via: ExactAudioCopy v0.99pb5
#
DISCID=890c0b0b
DTITLE=Ho Ngoc Ha - Muon Noi Voi Anh
DYEAR=2006
DGENRE=Pop
TTITLE0=Doi bong vui
TTITLE1=Noi em tim den
TTITLE2=Giac mo chi la giac mo
TTITLE3=Muon noi voi anh
TTITLE4=Chieu vang anh
TTITLE5=Cho em
TTITLE6=Dung trach em
TTITLE7=Tinh cho em
TTITLE8=Mua dong se qua
TTITLE9=Noi cuoi chan troi
TTITLE10=Nhu chua bat dau
EXTD=
EXTT0=
EXTT1=
EXTT2=
EXTT3=
EXTT4=
EXTT5=
EXTT6=
EXTT7=
EXTT8=
EXTT9=
EXTT10=
PLAYORDER=
